<svg width="200" height="200" viewBox="0 0 200 200" xmlns="http://www.w3.org/2000/svg">
  <!-- Background Circle -->
  <circle cx="100" cy="100" r="95" fill="#1a1a1a" stroke="#333333" stroke-width="2"/>

  <!-- AI Brain Symbol -->
  <g transform="translate(100, 100)">
    <!-- Central Circle (Core) -->
    <circle cx="0" cy="0" r="15" fill="#64b5f6" opacity="0.9"/>

    <!-- Neural Network Nodes -->
    <circle cx="-35" cy="-25" r="8" fill="#81c784" opacity="0.8"/>
    <circle cx="35" cy="-25" r="8" fill="#ffd54f" opacity="0.8"/>
    <circle cx="-40" cy="25" r="8" fill="#e57373" opacity="0.8"/>
    <circle cx="40" cy="25" r="8" fill="#ba68c8" opacity="0.8"/>

    <!-- Smaller Nodes -->
    <circle cx="-20" cy="-40" r="5" fill="#64b5f6" opacity="0.6"/>
    <circle cx="20" cy="-40" r="5" fill="#81c784" opacity="0.6"/>
    <circle cx="-50" cy="0" r="5" fill="#ffd54f" opacity="0.6"/>
    <circle cx="50" cy="0" r="5" fill="#e57373" opacity="0.6"/>

    <!-- Connection Lines -->
    <line x1="0" y1="0" x2="-35" y2="-25" stroke="#64b5f6" stroke-width="2" opacity="0.5"/>
    <line x1="0" y1="0" x2="35" y2="-25" stroke="#64b5f6" stroke-width="2" opacity="0.5"/>
    <line x1="0" y1="0" x2="-40" y2="25" stroke="#64b5f6" stroke-width="2" opacity="0.5"/>
    <line x1="0" y1="0" x2="40" y2="25" stroke="#64b5f6" stroke-width="2" opacity="0.5"/>
    <line x1="0" y1="0" x2="-20" y2="-40" stroke="#64b5f6" stroke-width="1.5" opacity="0.3"/>
    <line x1="0" y1="0" x2="20" y2="-40" stroke="#64b5f6" stroke-width="1.5" opacity="0.3"/>
    <line x1="0" y1="0" x2="-50" y2="0" stroke="#64b5f6" stroke-width="1.5" opacity="0.3"/>
    <line x1="0" y1="0" x2="50" y2="0" stroke="#64b5f6" stroke-width="1.5" opacity="0.3"/>

    <!-- Inter-node connections -->
    <line x1="-35" y1="-25" x2="35" y2="-25" stroke="#81c784" stroke-width="1" opacity="0.3"/>
    <line x1="-40" y1="25" x2="40" y2="25" stroke="#e57373" stroke-width="1" opacity="0.3"/>
  </g>

  <!-- Text -->
  <text x="100" y="175" font-family="Arial, sans-serif" font-size="16" font-weight="bold" text-anchor="middle" fill="#e0e0e0">
    AI DEV SETUP
  </text>
</svg>
